<mxfile host="app.diagrams.net" agent="Mozilla/5.0 (Windows NT 10.0; Win64; x64; rv:138.0) Gecko/20100101 Firefox/138.0" version="26.2.14">
  <diagram name="Page-1" id="Q6Ox6a3pWAJpoan8kHcV">
    <mxGraphModel grid="1" page="1" gridSize="10" guides="1" tooltips="1" connect="1" arrows="1" fold="1" pageScale="1" pageWidth="850" pageHeight="1100" math="0" shadow="0">
      <root>
        <mxCell id="0" />
        <mxCell id="1" parent="0" />
        <mxCell id="RJOrRvYJZuO_lPosKFHj-1" value="USER" style="shape=umlLifeline;perimeter=lifelinePerimeter;whiteSpace=wrap;container=1;dropTarget=0;collapsible=0;recursiveResize=0;outlineConnect=0;portConstraint=eastwest;newEdgeStyle={&quot;edgeStyle&quot;:&quot;elbowEdgeStyle&quot;,&quot;elbow&quot;:&quot;vertical&quot;,&quot;curved&quot;:0,&quot;rounded&quot;:0};size=65;strokeColor=#6c8ebf;fillColor=#dae8fc;strokeWidth=2;dashed=1;fontSize=18;fontStyle=1" vertex="1" parent="1">
          <mxGeometry x="20" y="20" width="150" height="2438" as="geometry" />
        </mxCell>
        <mxCell id="RJOrRvYJZuO_lPosKFHj-2" value="MAIN" style="shape=umlLifeline;perimeter=lifelinePerimeter;whiteSpace=wrap;container=1;dropTarget=0;collapsible=0;recursiveResize=0;outlineConnect=0;portConstraint=eastwest;newEdgeStyle={&quot;edgeStyle&quot;:&quot;elbowEdgeStyle&quot;,&quot;elbow&quot;:&quot;vertical&quot;,&quot;curved&quot;:0,&quot;rounded&quot;:0};size=65;strokeColor=#82b366;fillColor=#d5e8d4;strokeWidth=2;dashed=1;fontSize=18;fontStyle=1" vertex="1" parent="1">
          <mxGeometry x="353" y="20" width="150" height="2438" as="geometry" />
        </mxCell>
        <mxCell id="RJOrRvYJZuO_lPosKFHj-3" value="" style="points=[];perimeter=orthogonalPerimeter;outlineConnect=0;targetShapes=umlLifeline;portConstraint=eastwest;newEdgeStyle={&quot;edgeStyle&quot;:&quot;elbowEdgeStyle&quot;,&quot;elbow&quot;:&quot;vertical&quot;,&quot;curved&quot;:0,&quot;rounded&quot;:0};strokeColor=#82b366;fillColor=#d5e8d4;fontSize=18;" vertex="1" parent="RJOrRvYJZuO_lPosKFHj-2">
          <mxGeometry x="70" y="109" width="10" height="2234" as="geometry" />
        </mxCell>
        <mxCell id="RJOrRvYJZuO_lPosKFHj-4" value="" style="points=[];perimeter=orthogonalPerimeter;outlineConnect=0;targetShapes=umlLifeline;portConstraint=eastwest;newEdgeStyle={&quot;edgeStyle&quot;:&quot;elbowEdgeStyle&quot;,&quot;elbow&quot;:&quot;vertical&quot;,&quot;curved&quot;:0,&quot;rounded&quot;:0};strokeColor=#9673a6;fillColor=#e1d5e7;fontSize=18;" vertex="1" parent="RJOrRvYJZuO_lPosKFHj-2">
          <mxGeometry x="75" y="1295" width="10" height="114" as="geometry" />
        </mxCell>
        <mxCell id="RJOrRvYJZuO_lPosKFHj-5" value="DATASTORE" style="shape=umlLifeline;perimeter=lifelinePerimeter;whiteSpace=wrap;container=1;dropTarget=0;collapsible=0;recursiveResize=0;outlineConnect=0;portConstraint=eastwest;newEdgeStyle={&quot;edgeStyle&quot;:&quot;elbowEdgeStyle&quot;,&quot;elbow&quot;:&quot;vertical&quot;,&quot;curved&quot;:0,&quot;rounded&quot;:0};size=65;strokeColor=#d79b00;fillColor=#ffe6cc;strokeWidth=2;dashed=1;fontSize=18;fontStyle=1" vertex="1" parent="1">
          <mxGeometry x="609" y="20" width="150" height="2438" as="geometry" />
        </mxCell>
        <mxCell id="RJOrRvYJZuO_lPosKFHj-6" value="" style="points=[];perimeter=orthogonalPerimeter;outlineConnect=0;targetShapes=umlLifeline;portConstraint=eastwest;newEdgeStyle={&quot;edgeStyle&quot;:&quot;elbowEdgeStyle&quot;,&quot;elbow&quot;:&quot;vertical&quot;,&quot;curved&quot;:0,&quot;rounded&quot;:0};strokeColor=#d79b00;fillColor=#ffe6cc;fontSize=18;" vertex="1" parent="RJOrRvYJZuO_lPosKFHj-5">
          <mxGeometry x="70" y="301" width="10" height="54" as="geometry" />
        </mxCell>
        <mxCell id="RJOrRvYJZuO_lPosKFHj-7" value="" style="points=[];perimeter=orthogonalPerimeter;outlineConnect=0;targetShapes=umlLifeline;portConstraint=eastwest;newEdgeStyle={&quot;edgeStyle&quot;:&quot;elbowEdgeStyle&quot;,&quot;elbow&quot;:&quot;vertical&quot;,&quot;curved&quot;:0,&quot;rounded&quot;:0};strokeColor=#d79b00;fillColor=#ffe6cc;fontSize=18;" vertex="1" parent="RJOrRvYJZuO_lPosKFHj-5">
          <mxGeometry x="70" y="921" width="10" height="54" as="geometry" />
        </mxCell>
        <mxCell id="RJOrRvYJZuO_lPosKFHj-8" value="" style="points=[];perimeter=orthogonalPerimeter;outlineConnect=0;targetShapes=umlLifeline;portConstraint=eastwest;newEdgeStyle={&quot;edgeStyle&quot;:&quot;elbowEdgeStyle&quot;,&quot;elbow&quot;:&quot;vertical&quot;,&quot;curved&quot;:0,&quot;rounded&quot;:0};strokeColor=#d79b00;fillColor=#ffe6cc;fontSize=18;" vertex="1" parent="RJOrRvYJZuO_lPosKFHj-5">
          <mxGeometry x="70" y="2225" width="10" height="54" as="geometry" />
        </mxCell>
        <mxCell id="RJOrRvYJZuO_lPosKFHj-9" value="BUDGET" style="shape=umlLifeline;perimeter=lifelinePerimeter;whiteSpace=wrap;container=1;dropTarget=0;collapsible=0;recursiveResize=0;outlineConnect=0;portConstraint=eastwest;newEdgeStyle={&quot;edgeStyle&quot;:&quot;elbowEdgeStyle&quot;,&quot;elbow&quot;:&quot;vertical&quot;,&quot;curved&quot;:0,&quot;rounded&quot;:0};size=65;strokeColor=#d6b656;fillColor=#fff2cc;strokeWidth=2;dashed=1;fontSize=18;fontStyle=1" vertex="1" parent="1">
          <mxGeometry x="809" y="20" width="150" height="2438" as="geometry" />
        </mxCell>
        <mxCell id="RJOrRvYJZuO_lPosKFHj-10" value="" style="points=[];perimeter=orthogonalPerimeter;outlineConnect=0;targetShapes=umlLifeline;portConstraint=eastwest;newEdgeStyle={&quot;edgeStyle&quot;:&quot;elbowEdgeStyle&quot;,&quot;elbow&quot;:&quot;vertical&quot;,&quot;curved&quot;:0,&quot;rounded&quot;:0};strokeColor=#d6b656;fillColor=#fff2cc;fontSize=18;" vertex="1" parent="RJOrRvYJZuO_lPosKFHj-9">
          <mxGeometry x="70" y="813" width="10" height="54" as="geometry" />
        </mxCell>
        <mxCell id="RJOrRvYJZuO_lPosKFHj-11" value="" style="points=[];perimeter=orthogonalPerimeter;outlineConnect=0;targetShapes=umlLifeline;portConstraint=eastwest;newEdgeStyle={&quot;edgeStyle&quot;:&quot;elbowEdgeStyle&quot;,&quot;elbow&quot;:&quot;vertical&quot;,&quot;curved&quot;:0,&quot;rounded&quot;:0};strokeColor=#d6b656;fillColor=#fff2cc;fontSize=18;" vertex="1" parent="RJOrRvYJZuO_lPosKFHj-9">
          <mxGeometry x="70" y="1083" width="10" height="54" as="geometry" />
        </mxCell>
        <mxCell id="RJOrRvYJZuO_lPosKFHj-12" value="" style="points=[];perimeter=orthogonalPerimeter;outlineConnect=0;targetShapes=umlLifeline;portConstraint=eastwest;newEdgeStyle={&quot;edgeStyle&quot;:&quot;elbowEdgeStyle&quot;,&quot;elbow&quot;:&quot;vertical&quot;,&quot;curved&quot;:0,&quot;rounded&quot;:0};strokeColor=#d6b656;fillColor=#fff2cc;fontSize=18;" vertex="1" parent="RJOrRvYJZuO_lPosKFHj-9">
          <mxGeometry x="70" y="1628" width="10" height="54" as="geometry" />
        </mxCell>
        <mxCell id="RJOrRvYJZuO_lPosKFHj-13" value="" style="points=[];perimeter=orthogonalPerimeter;outlineConnect=0;targetShapes=umlLifeline;portConstraint=eastwest;newEdgeStyle={&quot;edgeStyle&quot;:&quot;elbowEdgeStyle&quot;,&quot;elbow&quot;:&quot;vertical&quot;,&quot;curved&quot;:0,&quot;rounded&quot;:0};strokeColor=#d6b656;fillColor=#fff2cc;fontSize=18;" vertex="1" parent="RJOrRvYJZuO_lPosKFHj-9">
          <mxGeometry x="70" y="1901" width="10" height="54" as="geometry" />
        </mxCell>
        <mxCell id="RJOrRvYJZuO_lPosKFHj-14" value="" style="points=[];perimeter=orthogonalPerimeter;outlineConnect=0;targetShapes=umlLifeline;portConstraint=eastwest;newEdgeStyle={&quot;edgeStyle&quot;:&quot;elbowEdgeStyle&quot;,&quot;elbow&quot;:&quot;vertical&quot;,&quot;curved&quot;:0,&quot;rounded&quot;:0};strokeColor=#d6b656;fillColor=#fff2cc;fontSize=18;" vertex="1" parent="RJOrRvYJZuO_lPosKFHj-9">
          <mxGeometry x="70" y="2009" width="10" height="54" as="geometry" />
        </mxCell>
        <mxCell id="RJOrRvYJZuO_lPosKFHj-15" value="EXPENSE" style="shape=umlLifeline;perimeter=lifelinePerimeter;whiteSpace=wrap;container=1;dropTarget=0;collapsible=0;recursiveResize=0;outlineConnect=0;portConstraint=eastwest;newEdgeStyle={&quot;edgeStyle&quot;:&quot;elbowEdgeStyle&quot;,&quot;elbow&quot;:&quot;vertical&quot;,&quot;curved&quot;:0,&quot;rounded&quot;:0};size=65;strokeColor=#b85450;fillColor=#f8cecc;strokeWidth=2;dashed=1;fontSize=18;fontStyle=1" vertex="1" parent="1">
          <mxGeometry x="1009" y="20" width="150" height="2438" as="geometry" />
        </mxCell>
        <mxCell id="RJOrRvYJZuO_lPosKFHj-16" value="" style="points=[];perimeter=orthogonalPerimeter;outlineConnect=0;targetShapes=umlLifeline;portConstraint=eastwest;newEdgeStyle={&quot;edgeStyle&quot;:&quot;elbowEdgeStyle&quot;,&quot;elbow&quot;:&quot;vertical&quot;,&quot;curved&quot;:0,&quot;rounded&quot;:0};strokeColor=#b85450;fillColor=#f8cecc;fontSize=18;" vertex="1" parent="RJOrRvYJZuO_lPosKFHj-15">
          <mxGeometry x="70" y="1520" width="10" height="54" as="geometry" />
        </mxCell>
        <mxCell id="RJOrRvYJZuO_lPosKFHj-17" value="alt" style="shape=umlFrame;dashed=1;pointerEvents=0;dropTarget=0;strokeColor=#9673a6;height=25;width=56;fontSize=18;strokeWidth=2;fillColor=#e1d5e7;" vertex="1" parent="1">
          <mxGeometry x="84" y="395" width="359" height="202" as="geometry" />
        </mxCell>
        <mxCell id="RJOrRvYJZuO_lPosKFHj-18" value="[Authentication successful]" style="text;strokeColor=#000000;fillColor=none;align=center;verticalAlign=middle;whiteSpace=wrap;fontSize=18;fontStyle=1" vertex="1" parent="RJOrRvYJZuO_lPosKFHj-17">
          <mxGeometry x="60" width="299" height="20" as="geometry" />
        </mxCell>
        <mxCell id="RJOrRvYJZuO_lPosKFHj-19" value="[Authentication failed]" style="shape=line;dashed=1;whiteSpace=wrap;verticalAlign=top;labelPosition=center;verticalLabelPosition=middle;align=center;strokeColor=#000000;fontSize=18;fontStyle=1" vertex="1" parent="RJOrRvYJZuO_lPosKFHj-17">
          <mxGeometry y="106" width="359" height="4" as="geometry" />
        </mxCell>
        <mxCell id="RJOrRvYJZuO_lPosKFHj-22" value="alt" style="shape=umlFrame;dashed=1;pointerEvents=0;dropTarget=0;strokeColor=#9673a6;height=21;width=46;fontSize=18;strokeWidth=2;fillColor=#e1d5e7;" vertex="1" parent="1">
          <mxGeometry x="84" y="1459" width="1015" height="364" as="geometry" />
        </mxCell>
        <mxCell id="RJOrRvYJZuO_lPosKFHj-23" value="[Expense is valid]" style="text;strokeColor=#000000;fillColor=none;align=center;verticalAlign=middle;whiteSpace=wrap;fontSize=18;fontStyle=1" vertex="1" parent="RJOrRvYJZuO_lPosKFHj-22">
          <mxGeometry x="50" width="965" height="20" as="geometry" />
        </mxCell>
        <mxCell id="RJOrRvYJZuO_lPosKFHj-24" value="[Expense exceeds budget]" style="shape=line;dashed=1;whiteSpace=wrap;verticalAlign=top;labelPosition=center;verticalLabelPosition=middle;align=center;strokeColor=#000000;fontSize=18;fontStyle=1" vertex="1" parent="RJOrRvYJZuO_lPosKFHj-22">
          <mxGeometry y="268" width="1015" height="4" as="geometry" />
        </mxCell>
        <mxCell id="RJOrRvYJZuO_lPosKFHj-25" value="startApplication()" style="verticalAlign=bottom;edgeStyle=elbowEdgeStyle;elbow=vertical;curved=0;rounded=0;endArrow=block;strokeColor=#000000;fontSize=18;" edge="1" parent="1" source="RJOrRvYJZuO_lPosKFHj-1" target="RJOrRvYJZuO_lPosKFHj-3">
          <mxGeometry relative="1" as="geometry">
            <Array as="points">
              <mxPoint x="268" y="129" />
            </Array>
          </mxGeometry>
        </mxCell>
        <mxCell id="RJOrRvYJZuO_lPosKFHj-26" value="displayWelcomeMenu()" style="curved=1;endArrow=block;rounded=0;strokeColor=#000000;fontSize=18;" edge="1" parent="1" source="RJOrRvYJZuO_lPosKFHj-3" target="RJOrRvYJZuO_lPosKFHj-3">
          <mxGeometry relative="1" as="geometry">
            <Array as="points">
              <mxPoint x="483" y="183" />
              <mxPoint x="483" y="213" />
            </Array>
          </mxGeometry>
        </mxCell>
        <mxCell id="RJOrRvYJZuO_lPosKFHj-27" value="login(id, password)" style="verticalAlign=bottom;edgeStyle=elbowEdgeStyle;elbow=vertical;curved=0;rounded=0;endArrow=block;strokeColor=#000000;fontSize=18;" edge="1" parent="1" source="RJOrRvYJZuO_lPosKFHj-1" target="RJOrRvYJZuO_lPosKFHj-3">
          <mxGeometry relative="1" as="geometry">
            <Array as="points">
              <mxPoint x="268" y="267" />
            </Array>
          </mxGeometry>
        </mxCell>
        <mxCell id="RJOrRvYJZuO_lPosKFHj-28" value="authenticate(id, password)" style="verticalAlign=bottom;edgeStyle=elbowEdgeStyle;elbow=vertical;curved=0;rounded=0;endArrow=block;strokeColor=#000000;fontSize=18;" edge="1" parent="1" source="RJOrRvYJZuO_lPosKFHj-3" target="RJOrRvYJZuO_lPosKFHj-6">
          <mxGeometry relative="1" as="geometry">
            <Array as="points">
              <mxPoint x="565" y="321" />
            </Array>
          </mxGeometry>
        </mxCell>
        <mxCell id="RJOrRvYJZuO_lPosKFHj-29" value="return userObject" style="verticalAlign=bottom;edgeStyle=elbowEdgeStyle;elbow=vertical;curved=0;rounded=0;dashed=1;dashPattern=2 3;endArrow=block;strokeColor=#000000;fontSize=18;" edge="1" parent="1" source="RJOrRvYJZuO_lPosKFHj-6" target="RJOrRvYJZuO_lPosKFHj-3">
          <mxGeometry relative="1" as="geometry">
            <Array as="points">
              <mxPoint x="568" y="375" />
            </Array>
          </mxGeometry>
        </mxCell>
        <mxCell id="RJOrRvYJZuO_lPosKFHj-30" value="showDashboard()" style="verticalAlign=bottom;edgeStyle=elbowEdgeStyle;elbow=vertical;curved=0;rounded=0;dashed=1;dashPattern=2 3;endArrow=block;strokeColor=#000000;fontSize=18;" edge="1" parent="1" source="RJOrRvYJZuO_lPosKFHj-3" target="RJOrRvYJZuO_lPosKFHj-1">
          <mxGeometry relative="1" as="geometry">
            <Array as="points">
              <mxPoint x="271" y="476" />
            </Array>
          </mxGeometry>
        </mxCell>
        <mxCell id="RJOrRvYJZuO_lPosKFHj-31" value="showLoginError()" style="verticalAlign=bottom;edgeStyle=elbowEdgeStyle;elbow=vertical;curved=0;rounded=0;dashed=1;dashPattern=2 3;endArrow=block;strokeColor=#000000;fontSize=18;" edge="1" parent="1" source="RJOrRvYJZuO_lPosKFHj-3" target="RJOrRvYJZuO_lPosKFHj-1">
          <mxGeometry relative="1" as="geometry">
            <Array as="points">
              <mxPoint x="271" y="577" />
            </Array>
          </mxGeometry>
        </mxCell>
        <mxCell id="RJOrRvYJZuO_lPosKFHj-32" value="selectCreateBudget()" style="verticalAlign=bottom;edgeStyle=elbowEdgeStyle;elbow=vertical;curved=0;rounded=0;endArrow=block;strokeColor=#000000;fontSize=18;" edge="1" parent="1" source="RJOrRvYJZuO_lPosKFHj-1" target="RJOrRvYJZuO_lPosKFHj-3">
          <mxGeometry relative="1" as="geometry">
            <Array as="points">
              <mxPoint x="268" y="641" />
            </Array>
          </mxGeometry>
        </mxCell>
        <mxCell id="RJOrRvYJZuO_lPosKFHj-33" value="promptBudgetDetails()" style="curved=1;endArrow=block;rounded=0;strokeColor=#000000;fontSize=18;" edge="1" parent="1" source="RJOrRvYJZuO_lPosKFHj-3" target="RJOrRvYJZuO_lPosKFHj-3">
          <mxGeometry relative="1" as="geometry">
            <Array as="points">
              <mxPoint x="483" y="695" />
              <mxPoint x="483" y="725" />
            </Array>
          </mxGeometry>
        </mxCell>
        <mxCell id="RJOrRvYJZuO_lPosKFHj-34" value="provideBudgetInfo(name, limit)" style="verticalAlign=bottom;edgeStyle=elbowEdgeStyle;elbow=vertical;curved=0;rounded=0;endArrow=block;strokeColor=#000000;fontSize=18;" edge="1" parent="1" source="RJOrRvYJZuO_lPosKFHj-1" target="RJOrRvYJZuO_lPosKFHj-3">
          <mxGeometry relative="1" as="geometry">
            <Array as="points">
              <mxPoint x="268" y="779" />
            </Array>
          </mxGeometry>
        </mxCell>
        <mxCell id="RJOrRvYJZuO_lPosKFHj-35" value="create&gt;&gt;Budget(name, limit)" style="verticalAlign=bottom;edgeStyle=elbowEdgeStyle;elbow=vertical;curved=0;rounded=0;endArrow=block;strokeColor=#000000;fontSize=18;" edge="1" parent="1" source="RJOrRvYJZuO_lPosKFHj-3" target="RJOrRvYJZuO_lPosKFHj-10">
          <mxGeometry relative="1" as="geometry">
            <Array as="points">
              <mxPoint x="665" y="833" />
            </Array>
          </mxGeometry>
        </mxCell>
        <mxCell id="RJOrRvYJZuO_lPosKFHj-36" value="return budgetObject" style="verticalAlign=bottom;edgeStyle=elbowEdgeStyle;elbow=vertical;curved=0;rounded=0;dashed=1;dashPattern=2 3;endArrow=block;strokeColor=#000000;fontSize=18;" edge="1" parent="1" source="RJOrRvYJZuO_lPosKFHj-10" target="RJOrRvYJZuO_lPosKFHj-3">
          <mxGeometry relative="1" as="geometry">
            <Array as="points">
              <mxPoint x="668" y="887" />
            </Array>
          </mxGeometry>
        </mxCell>
        <mxCell id="RJOrRvYJZuO_lPosKFHj-37" value="saveData()" style="verticalAlign=bottom;edgeStyle=elbowEdgeStyle;elbow=vertical;curved=0;rounded=0;endArrow=block;strokeColor=#000000;fontSize=18;" edge="1" parent="1" source="RJOrRvYJZuO_lPosKFHj-3" target="RJOrRvYJZuO_lPosKFHj-7">
          <mxGeometry relative="1" as="geometry">
            <Array as="points">
              <mxPoint x="565" y="941" />
            </Array>
          </mxGeometry>
        </mxCell>
        <mxCell id="RJOrRvYJZuO_lPosKFHj-38" value="confirmSave()" style="verticalAlign=bottom;edgeStyle=elbowEdgeStyle;elbow=vertical;curved=0;rounded=0;dashed=1;dashPattern=2 3;endArrow=block;strokeColor=#000000;fontSize=18;" edge="1" parent="1" source="RJOrRvYJZuO_lPosKFHj-7" target="RJOrRvYJZuO_lPosKFHj-3">
          <mxGeometry relative="1" as="geometry">
            <Array as="points">
              <mxPoint x="568" y="995" />
            </Array>
          </mxGeometry>
        </mxCell>
        <mxCell id="RJOrRvYJZuO_lPosKFHj-39" value="selectAddExpense()" style="verticalAlign=bottom;edgeStyle=elbowEdgeStyle;elbow=vertical;curved=0;rounded=0;endArrow=block;strokeColor=#000000;fontSize=18;" edge="1" parent="1" source="RJOrRvYJZuO_lPosKFHj-1" target="RJOrRvYJZuO_lPosKFHj-3">
          <mxGeometry relative="1" as="geometry">
            <Array as="points">
              <mxPoint x="268" y="1049" />
            </Array>
          </mxGeometry>
        </mxCell>
        <mxCell id="RJOrRvYJZuO_lPosKFHj-40" value="getBudgetInfo()" style="verticalAlign=bottom;edgeStyle=elbowEdgeStyle;elbow=vertical;curved=0;rounded=0;endArrow=block;strokeColor=#000000;fontSize=18;" edge="1" parent="1" source="RJOrRvYJZuO_lPosKFHj-3" target="RJOrRvYJZuO_lPosKFHj-11">
          <mxGeometry relative="1" as="geometry">
            <Array as="points">
              <mxPoint x="665" y="1103" />
            </Array>
          </mxGeometry>
        </mxCell>
        <mxCell id="RJOrRvYJZuO_lPosKFHj-41" value="return budgetDetails" style="verticalAlign=bottom;edgeStyle=elbowEdgeStyle;elbow=vertical;curved=0;rounded=0;dashed=1;dashPattern=2 3;endArrow=block;strokeColor=#000000;fontSize=18;" edge="1" parent="1" source="RJOrRvYJZuO_lPosKFHj-11" target="RJOrRvYJZuO_lPosKFHj-3">
          <mxGeometry relative="1" as="geometry">
            <Array as="points">
              <mxPoint x="668" y="1157" />
            </Array>
          </mxGeometry>
        </mxCell>
        <mxCell id="RJOrRvYJZuO_lPosKFHj-42" value="provideExpenseDetails(desc, amount)" style="verticalAlign=bottom;edgeStyle=elbowEdgeStyle;elbow=vertical;curved=0;rounded=0;endArrow=block;strokeColor=#000000;fontSize=18;" edge="1" parent="1" source="RJOrRvYJZuO_lPosKFHj-1" target="RJOrRvYJZuO_lPosKFHj-3">
          <mxGeometry relative="1" as="geometry">
            <Array as="points">
              <mxPoint x="268" y="1211" />
            </Array>
          </mxGeometry>
        </mxCell>
        <mxCell id="RJOrRvYJZuO_lPosKFHj-43" value="validateExpense(amount, budget)" style="curved=1;endArrow=block;rounded=0;strokeColor=#000000;fontSize=18;" edge="1" parent="1" source="RJOrRvYJZuO_lPosKFHj-3" target="RJOrRvYJZuO_lPosKFHj-3">
          <mxGeometry relative="1" as="geometry">
            <Array as="points">
              <mxPoint x="483" y="1285" />
              <mxPoint x="483" y="1315" />
            </Array>
          </mxGeometry>
        </mxCell>
        <mxCell id="RJOrRvYJZuO_lPosKFHj-44" value="return isValid" style="curved=1;dashed=1;dashPattern=2 3;endArrow=block;rounded=0;strokeColor=#000000;fontSize=18;" edge="1" parent="1" source="RJOrRvYJZuO_lPosKFHj-3" target="RJOrRvYJZuO_lPosKFHj-3">
          <mxGeometry relative="1" as="geometry">
            <Array as="points">
              <mxPoint x="488" y="1369" />
              <mxPoint x="488" y="1399" />
            </Array>
          </mxGeometry>
        </mxCell>
        <mxCell id="RJOrRvYJZuO_lPosKFHj-45" value="create&gt;&gt;Expense(desc, amount)" style="verticalAlign=bottom;edgeStyle=elbowEdgeStyle;elbow=vertical;curved=0;rounded=0;endArrow=block;strokeColor=#000000;fontSize=18;" edge="1" parent="1" source="RJOrRvYJZuO_lPosKFHj-3" target="RJOrRvYJZuO_lPosKFHj-16">
          <mxGeometry relative="1" as="geometry">
            <Array as="points">
              <mxPoint x="765" y="1540" />
            </Array>
          </mxGeometry>
        </mxCell>
        <mxCell id="RJOrRvYJZuO_lPosKFHj-46" value="return expenseObject" style="verticalAlign=bottom;edgeStyle=elbowEdgeStyle;elbow=vertical;curved=0;rounded=0;dashed=1;dashPattern=2 3;endArrow=block;strokeColor=#000000;fontSize=18;" edge="1" parent="1" source="RJOrRvYJZuO_lPosKFHj-16" target="RJOrRvYJZuO_lPosKFHj-3">
          <mxGeometry relative="1" as="geometry">
            <Array as="points">
              <mxPoint x="768" y="1594" />
            </Array>
          </mxGeometry>
        </mxCell>
        <mxCell id="RJOrRvYJZuO_lPosKFHj-47" value="addExpense(expenseObject)" style="verticalAlign=bottom;edgeStyle=elbowEdgeStyle;elbow=vertical;curved=0;rounded=0;endArrow=block;strokeColor=#000000;fontSize=18;" edge="1" parent="1" source="RJOrRvYJZuO_lPosKFHj-3" target="RJOrRvYJZuO_lPosKFHj-12">
          <mxGeometry relative="1" as="geometry">
            <Array as="points">
              <mxPoint x="665" y="1648" />
            </Array>
          </mxGeometry>
        </mxCell>
        <mxCell id="RJOrRvYJZuO_lPosKFHj-48" value="confirm addition" style="verticalAlign=bottom;edgeStyle=elbowEdgeStyle;elbow=vertical;curved=0;rounded=0;dashed=1;dashPattern=2 3;endArrow=block;strokeColor=#000000;fontSize=18;" edge="1" parent="1" source="RJOrRvYJZuO_lPosKFHj-12" target="RJOrRvYJZuO_lPosKFHj-3">
          <mxGeometry relative="1" as="geometry">
            <Array as="points">
              <mxPoint x="668" y="1702" />
            </Array>
          </mxGeometry>
        </mxCell>
        <mxCell id="RJOrRvYJZuO_lPosKFHj-49" value="showBudgetExceededWarning()" style="verticalAlign=bottom;edgeStyle=elbowEdgeStyle;elbow=vertical;curved=0;rounded=0;dashed=1;dashPattern=2 3;endArrow=block;strokeColor=#000000;fontSize=18;" edge="1" parent="1" source="RJOrRvYJZuO_lPosKFHj-3" target="RJOrRvYJZuO_lPosKFHj-1">
          <mxGeometry relative="1" as="geometry">
            <Array as="points">
              <mxPoint x="271" y="1803" />
            </Array>
          </mxGeometry>
        </mxCell>
        <mxCell id="RJOrRvYJZuO_lPosKFHj-50" value="deleteExpense(expenseId)" style="verticalAlign=bottom;edgeStyle=elbowEdgeStyle;elbow=vertical;curved=0;rounded=0;endArrow=block;strokeColor=#000000;fontSize=18;" edge="1" parent="1" source="RJOrRvYJZuO_lPosKFHj-1" target="RJOrRvYJZuO_lPosKFHj-3">
          <mxGeometry relative="1" as="geometry">
            <Array as="points">
              <mxPoint x="268" y="1867" />
            </Array>
          </mxGeometry>
        </mxCell>
        <mxCell id="RJOrRvYJZuO_lPosKFHj-51" value="findExpense(expenseId)" style="verticalAlign=bottom;edgeStyle=elbowEdgeStyle;elbow=vertical;curved=0;rounded=0;endArrow=block;strokeColor=#000000;fontSize=18;" edge="1" parent="1" source="RJOrRvYJZuO_lPosKFHj-3" target="RJOrRvYJZuO_lPosKFHj-13">
          <mxGeometry relative="1" as="geometry">
            <Array as="points">
              <mxPoint x="665" y="1921" />
            </Array>
          </mxGeometry>
        </mxCell>
        <mxCell id="RJOrRvYJZuO_lPosKFHj-52" value="return expenseObject" style="verticalAlign=bottom;edgeStyle=elbowEdgeStyle;elbow=vertical;curved=0;rounded=0;dashed=1;dashPattern=2 3;endArrow=block;strokeColor=#000000;fontSize=18;" edge="1" parent="1" source="RJOrRvYJZuO_lPosKFHj-13" target="RJOrRvYJZuO_lPosKFHj-3">
          <mxGeometry relative="1" as="geometry">
            <Array as="points">
              <mxPoint x="668" y="1975" />
            </Array>
          </mxGeometry>
        </mxCell>
        <mxCell id="RJOrRvYJZuO_lPosKFHj-53" value="removeExpense(expenseObject)" style="verticalAlign=bottom;edgeStyle=elbowEdgeStyle;elbow=vertical;curved=0;rounded=0;endArrow=block;strokeColor=#000000;fontSize=18;" edge="1" parent="1" source="RJOrRvYJZuO_lPosKFHj-3" target="RJOrRvYJZuO_lPosKFHj-14">
          <mxGeometry relative="1" as="geometry">
            <Array as="points">
              <mxPoint x="665" y="2029" />
            </Array>
          </mxGeometry>
        </mxCell>
        <mxCell id="RJOrRvYJZuO_lPosKFHj-54" value="confirm removal" style="verticalAlign=bottom;edgeStyle=elbowEdgeStyle;elbow=vertical;curved=0;rounded=0;dashed=1;dashPattern=2 3;endArrow=block;strokeColor=#000000;fontSize=18;" edge="1" parent="1" source="RJOrRvYJZuO_lPosKFHj-14" target="RJOrRvYJZuO_lPosKFHj-3">
          <mxGeometry relative="1" as="geometry">
            <Array as="points">
              <mxPoint x="668" y="2083" />
            </Array>
          </mxGeometry>
        </mxCell>
        <mxCell id="RJOrRvYJZuO_lPosKFHj-55" value="destroy&gt;&gt;Expense" style="verticalAlign=bottom;edgeStyle=elbowEdgeStyle;elbow=vertical;curved=0;rounded=0;endArrow=block;strokeColor=#000000;fontSize=18;" edge="1" parent="1" source="RJOrRvYJZuO_lPosKFHj-3" target="RJOrRvYJZuO_lPosKFHj-15">
          <mxGeometry x="0.001" relative="1" as="geometry">
            <Array as="points">
              <mxPoint x="767" y="2137" />
            </Array>
            <mxPoint as="offset" />
          </mxGeometry>
        </mxCell>
        <mxCell id="RJOrRvYJZuO_lPosKFHj-56" value="exitApplication()" style="verticalAlign=bottom;edgeStyle=elbowEdgeStyle;elbow=vertical;curved=0;rounded=0;endArrow=block;strokeColor=#000000;fontSize=18;" edge="1" parent="1" source="RJOrRvYJZuO_lPosKFHj-1" target="RJOrRvYJZuO_lPosKFHj-3">
          <mxGeometry relative="1" as="geometry">
            <Array as="points">
              <mxPoint x="268" y="2191" />
            </Array>
          </mxGeometry>
        </mxCell>
        <mxCell id="RJOrRvYJZuO_lPosKFHj-57" value="saveAllChanges()" style="verticalAlign=bottom;edgeStyle=elbowEdgeStyle;elbow=vertical;curved=0;rounded=0;endArrow=block;strokeColor=#000000;fontSize=18;" edge="1" parent="1" source="RJOrRvYJZuO_lPosKFHj-3" target="RJOrRvYJZuO_lPosKFHj-8">
          <mxGeometry relative="1" as="geometry">
            <Array as="points">
              <mxPoint x="565" y="2245" />
            </Array>
          </mxGeometry>
        </mxCell>
        <mxCell id="RJOrRvYJZuO_lPosKFHj-58" value="confirmSave()" style="verticalAlign=bottom;edgeStyle=elbowEdgeStyle;elbow=vertical;curved=0;rounded=0;dashed=1;dashPattern=2 3;endArrow=block;strokeColor=#000000;fontSize=18;" edge="1" parent="1" source="RJOrRvYJZuO_lPosKFHj-8" target="RJOrRvYJZuO_lPosKFHj-3">
          <mxGeometry relative="1" as="geometry">
            <Array as="points">
              <mxPoint x="568" y="2299" />
            </Array>
          </mxGeometry>
        </mxCell>
        <mxCell id="RJOrRvYJZuO_lPosKFHj-59" value="applicationClosed()" style="verticalAlign=bottom;edgeStyle=elbowEdgeStyle;elbow=vertical;curved=0;rounded=0;dashed=1;dashPattern=2 3;endArrow=block;strokeColor=#000000;fontSize=18;" edge="1" parent="1" source="RJOrRvYJZuO_lPosKFHj-3" target="RJOrRvYJZuO_lPosKFHj-1">
          <mxGeometry relative="1" as="geometry">
            <Array as="points">
              <mxPoint x="271" y="2353" />
            </Array>
          </mxGeometry>
        </mxCell>
        <mxCell id="RJOrRvYJZuO_lPosKFHj-79" value="EXPENSE" style="shape=umlLifeline;perimeter=lifelinePerimeter;whiteSpace=wrap;container=1;dropTarget=0;collapsible=0;recursiveResize=0;outlineConnect=0;portConstraint=eastwest;newEdgeStyle={&quot;edgeStyle&quot;:&quot;elbowEdgeStyle&quot;,&quot;elbow&quot;:&quot;vertical&quot;,&quot;curved&quot;:0,&quot;rounded&quot;:0};size=65;strokeColor=#b85450;fillColor=#f8cecc;strokeWidth=2;dashed=1;fontSize=18;fontStyle=1;direction=west;" vertex="1" parent="1">
          <mxGeometry x="1008.5" y="2458" width="151" height="70" as="geometry" />
        </mxCell>
        <mxCell id="RJOrRvYJZuO_lPosKFHj-82" value="BUDGET" style="shape=umlLifeline;perimeter=lifelinePerimeter;whiteSpace=wrap;container=1;dropTarget=0;collapsible=0;recursiveResize=0;outlineConnect=0;portConstraint=eastwest;newEdgeStyle={&quot;edgeStyle&quot;:&quot;elbowEdgeStyle&quot;,&quot;elbow&quot;:&quot;vertical&quot;,&quot;curved&quot;:0,&quot;rounded&quot;:0};size=65;strokeColor=#d6b656;fillColor=#fff2cc;strokeWidth=2;dashed=1;fontSize=18;fontStyle=1;direction=west;" vertex="1" parent="1">
          <mxGeometry x="808.5" y="2458" width="151" height="70" as="geometry" />
        </mxCell>
        <mxCell id="RJOrRvYJZuO_lPosKFHj-83" value="DATASTORE" style="shape=umlLifeline;perimeter=lifelinePerimeter;whiteSpace=wrap;container=1;dropTarget=0;collapsible=0;recursiveResize=0;outlineConnect=0;portConstraint=eastwest;newEdgeStyle={&quot;edgeStyle&quot;:&quot;elbowEdgeStyle&quot;,&quot;elbow&quot;:&quot;vertical&quot;,&quot;curved&quot;:0,&quot;rounded&quot;:0};size=65;strokeColor=#d79b00;fillColor=#ffe6cc;strokeWidth=2;dashed=1;fontSize=18;fontStyle=1;direction=west;" vertex="1" parent="1">
          <mxGeometry x="608.5" y="2458" width="151" height="70" as="geometry" />
        </mxCell>
        <mxCell id="RJOrRvYJZuO_lPosKFHj-84" value="MAIN" style="shape=umlLifeline;perimeter=lifelinePerimeter;whiteSpace=wrap;container=1;dropTarget=0;collapsible=0;recursiveResize=0;outlineConnect=0;portConstraint=eastwest;newEdgeStyle={&quot;edgeStyle&quot;:&quot;elbowEdgeStyle&quot;,&quot;elbow&quot;:&quot;vertical&quot;,&quot;curved&quot;:0,&quot;rounded&quot;:0};size=65;strokeColor=#82b366;fillColor=#d5e8d4;strokeWidth=2;dashed=1;fontSize=18;fontStyle=1;direction=west;" vertex="1" parent="1">
          <mxGeometry x="352.5" y="2458" width="151" height="70" as="geometry" />
        </mxCell>
        <mxCell id="RJOrRvYJZuO_lPosKFHj-86" value="Object" style="shape=umlLifeline;perimeter=lifelinePerimeter;whiteSpace=wrap;container=1;dropTarget=0;collapsible=0;recursiveResize=0;outlineConnect=0;portConstraint=eastwest;newEdgeStyle={&quot;edgeStyle&quot;:&quot;elbowEdgeStyle&quot;,&quot;elbow&quot;:&quot;vertical&quot;,&quot;curved&quot;:0,&quot;rounded&quot;:0};size=65;strokeColor=#6c8ebf;fillColor=#dae8fc;strokeWidth=2;dashed=1;fontSize=18;fontStyle=1;direction=west;" vertex="1" parent="1">
          <mxGeometry x="19.5" y="2458" width="151" height="70" as="geometry" />
        </mxCell>
      </root>
    </mxGraphModel>
  </diagram>
</mxfile>
